<mxfile host="app.diagrams.net" modified="2023-08-11T06:31:42.095Z" agent="Mozilla/5.0 (Macintosh; Intel Mac OS X 10_15_7) AppleWebKit/605.1.15 (KHTML, like Gecko) Version/16.4 Safari/605.1.15" version="21.6.8" etag="D4D0tSmIS6BS7gLCF1Rd" type="github">
  <diagram name="페이지-1" id="9fEeFuoiJvnfO3VwYBe9">
    <mxGraphModel>
      <root>
        <mxCell id="0" />
        <mxCell id="1" parent="0" />
      </root>
    </mxGraphModel>
  </diagram>
</mxfile>
